<svg width="1063" height="760" viewBox="0 0 1063 760" fill="none" xmlns="http://www.w3.org/2000/svg">
<g opacity="0.36" clip-path="url(#clip0_21_67)">
<g opacity="0.65">
<path d="M-60.8147 532.888C-39.6929 530.314 -18.927 523.299 -1.54764 511.102C15.8317 498.905 29.6647 481.357 35.8213 461.132C41.0853 443.839 41.0896 424.26 52.0353 409.828C61.4281 397.443 77.9243 391.31 93.4601 392.839C108.996 394.368 123.354 402.955 133.437 414.787C142.808 425.784 148.743 439.394 158.479 450.074C174.382 467.521 200.294 475.284 223.27 469.486" stroke="#29ABE2" stroke-width="2" stroke-miterlimit="10" stroke-dasharray="4 6 4 6"/>
<path d="M163.21 456.42C146.176 469.063 128.285 482.816 120.964 502.645C117.504 512.013 116.681 522.133 116.572 532.11C116.231 563.31 123.349 595.996 144.067 619.441C152.144 628.58 162.321 636.455 166.871 647.746C170.261 656.159 170.1 665.544 169.274 674.571C168.085 687.554 165.335 701.059 156.908 711.055C148.073 721.535 134.309 726.63 124.353 736.067C107.108 752.413 104.811 781.952 119.325 800.724" stroke="#29ABE2" stroke-width="2" stroke-miterlimit="10" stroke-dasharray="4 6 4 6"/>
<path d="M141.987 214.234C133.587 220.97 120.849 218.624 111.685 212.962C102.522 207.299 95.3469 198.904 86.3177 193.032C73.7289 184.846 57.7043 182.064 43.0636 185.523C18.5256 191.321 -0.50967 213.191 -25.5788 215.937C-35.2466 216.996 -45.0165 215.049 -54.2867 212.128C-70.2151 207.109 -85.6568 198.783 -95.7108 185.523" stroke="#29ABE2" stroke-width="2" stroke-miterlimit="10" stroke-dasharray="4 6 4 6"/>
<path d="M18.0799 493.201C26.962 513.771 28.7874 538.478 17.8028 558.027C15.1558 562.737 11.8409 567.042 9.01647 571.65C6.16541 576.3 3.82475 581.24 1.6492 586.237C-4.87744 601.225 -10.01 618.074 -5.22971 633.695C-0.662333 648.62 12.4025 660.325 14.8764 675.73C17.459 691.811 7.89008 707.086 -1.25678 720.604" stroke="#29ABE2" stroke-width="2" stroke-miterlimit="10" stroke-dasharray="4 6 4 6"/>
<path d="M287.604 524.098C276.42 556.793 283.149 594.941 304.855 621.905C310.669 629.128 317.426 635.537 323.701 642.368C339.894 659.995 353.022 680.824 359.139 703.899C365.255 726.973 363.94 752.407 352.92 773.616" stroke="#29ABE2" stroke-width="2" stroke-miterlimit="10" stroke-dasharray="4 6 4 6"/>
<path d="M129.603 58.9889C154.505 81.0896 166.446 119.81 150.149 148.761C136.556 172.906 104.45 189.012 101.974 219.133C101.407 226.041 102.532 233.372 106.727 238.913C113.94 248.441 128.596 250.881 134.209 261.416C137.937 268.416 136.509 276.989 138.58 284.636C140.946 293.374 147.825 300.368 155.734 304.869C174.871 315.764 195.333 320.359 210.297 338.244C220.722 350.702 225.701 369.112 217.964 383.374C212.725 393.032 202.278 400.024 200.179 410.793C199.485 414.351 199.788 418.076 198.791 421.563C196.462 429.711 187.154 434.544 178.657 433.778C170.159 433.012 162.648 427.739 157.061 421.339C151.474 414.938 147.445 407.378 142.864 400.234C127.767 376.685 112.485 356.553 82.5651 356.222C76.745 356.157 70.8488 356.482 65.2881 358.19C44.4956 364.577 29.138 397.229 26.615 417.112C26.1126 421.073 26.3953 425.092 26.0903 429.074C24.5328 449.395 6.15219 466.656 -14.2894 468.547C-34.7317 470.439 -55.2952 457.845 -64.2046 439.487C-68.5381 430.559 -70.3576 420.599 -74.6111 411.631C-79.697 400.909 -88.149 391.844 -91.9581 380.613C-93.5253 375.991 -94.2637 371.107 -96.0842 366.578C-99.9896 356.86 -108.408 349.759 -116.552 343.118C-128.516 333.362 -140.821 323.409 -148.658 310.156C-159.905 291.136 -160.516 267.696 -157.633 245.825C-154.751 223.955 -148.703 202.47 -147.731 180.435C-146.131 144.194 -158.017 105.913 -143.322 72.6961C-129.148 40.6578 -82.851 9.40218 -46.6546 13.708C-31.8032 15.4755 -18.442 23.4506 -3.40115 25.3523C19.884 28.2957 43.3476 26.1469 66.565 30.4983C89.4777 34.7929 112.03 43.3917 129.603 58.9889Z" stroke="#65C8D0" stroke-width="4" stroke-miterlimit="10"/>
<path d="M390.437 583.449C410.202 600.918 420.149 625.396 422.385 651.708C424.459 676.123 432.32 703.928 419.749 727.064C406.57 751.319 376.733 759.716 349.85 761.247C321.607 762.856 293.359 759.467 265.194 756.812C216.611 752.233 167.563 749.834 119.101 755.699C76.0621 760.907 32.4129 772.585 -9.97311 763.334C-25.7921 759.881 -42.3502 752.293 -49.3517 737.246C-52.4309 730.628 -53.3449 723.192 -54.2186 715.904C-58.8534 677.227 -69.1422 634.942 -38.4049 604.268C-23.769 589.663 -3.96333 582.312 14.0407 572.513C32.0448 562.714 49.8829 548.292 54.2018 527.758C59.2482 503.766 44.3773 478.033 52.2508 454.865C56.1818 443.299 65.8707 433.998 77.3281 430.794C88.7847 427.591 101.686 430.574 110.718 438.516C123.054 449.361 127.789 467.951 141.419 476.994C158.148 488.091 182.977 481.179 197.573 495.12C207.789 504.878 208.766 521.019 215.225 533.749C220.912 544.96 230.798 553.294 241.243 559.913C250.697 565.903 261.168 570.847 272.254 571.281C285.473 571.799 298.04 565.923 310.956 562.963C338.601 556.626 368.936 564.444 390.437 583.449Z" stroke="#65C8D0" stroke-width="4" stroke-miterlimit="10"/>
<path d="M-73.2384 43.0814C-52.602 40.4904 -32.0901 47.339 -11.4255 49.6812C24.5139 53.7544 64.102 44.8485 94.8356 63.7789C120.205 79.4048 132.186 113.513 122.107 141.415C115.199 160.54 99.8541 175.321 89.4822 192.837C79.111 210.352 74.7617 234.912 89.0226 249.48C95.8307 256.435 106.113 260.203 110.61 268.812C114.823 276.878 112.634 286.745 114.822 295.568C119.235 313.362 139.138 321.859 156.415 328.319C173.692 334.781 193.337 344.887 195.592 363.076C196.257 368.446 195.216 373.902 193.526 379.046C192.013 383.651 189.768 388.335 185.672 390.969C179.385 395.013 170.69 392.815 164.834 388.18C158.978 383.544 155.118 376.948 150.632 370.995C135.659 351.122 111.748 337.524 86.7475 337.127C61.7474 336.73 36.465 350.531 25.3937 372.787C16.4014 390.863 15.6471 414.511 -0.816439 426.316C-16.061 437.247 -39.0651 431.51 -51.4224 417.444C-69.0722 397.356 -68.0553 366.711 -82.5801 344.291C-97.6721 320.997 -128.059 308.845 -137.941 282.944C-149.754 251.982 -126.537 218.921 -125.697 185.821C-125.241 167.829 -131.468 150.399 -134.07 132.587C-140.079 91.4329 -117.754 48.6716 -73.2384 43.0814Z" stroke="#65C8D0" stroke-width="3" stroke-miterlimit="10"/>
<path d="M12.4188 603.75C33.2448 594.613 56.2876 584.685 66.2388 563.698C77.9114 539.08 66.7899 509.987 66.8954 482.584C66.9182 476.676 67.6647 470.312 71.5069 465.931C79.8574 456.411 95.6445 463.018 103.681 472.81C111.717 482.601 117.35 495.504 128.676 500.793C145.927 508.85 170.848 496.475 182.777 511.656C189.54 520.262 187.385 532.766 188.878 543.745C191.812 565.331 210.311 582.083 230.627 587.989C250.943 593.896 272.698 590.795 293.195 585.564C305.993 582.298 319.085 578.182 332.115 580.22C359.959 584.574 376.913 615.409 380.346 644.274C382.281 660.533 381.199 677.506 374.761 692.484C368.322 707.461 356.047 720.214 340.756 724.589C331.622 727.202 321.96 726.786 312.51 726.075C278.446 723.514 244.558 717.403 210.407 717.983C169.167 718.683 128.724 729.106 87.8268 734.662C62.6139 738.087 36.498 739.59 12.1924 731.896C-12.1132 724.203 -34.4816 705.755 -41.3057 680.466C-51.7151 641.892 -17.3619 616.817 12.4188 603.75Z" stroke="#65C8D0" stroke-width="3" stroke-miterlimit="10"/>
<path d="M-57.2713 604.315C-51.9166 597.976 -51.529 589.042 -50.0437 580.906C-46.8443 563.376 -34.9671 545.491 -17.1875 542.998C-12.2918 542.312 -7.28462 542.839 -2.38985 542.143C2.50491 541.447 7.61695 539.143 9.67604 534.682C10.9493 531.924 10.8639 528.693 10.004 525.784C7.37302 516.883 -1.60645 511.379 -10.4237 508.293C-19.2409 505.208 -28.7589 503.599 -36.5881 498.532C-39.9015 496.388 -42.8611 493.651 -46.4832 492.072C-53.9376 488.823 -63.1653 491.333 -68.9276 497.049C-74.6899 502.766 -77.2444 511.131 -77.1105 519.21C-76.9956 526.152 -75.0688 533.019 -75.4828 539.95C-76.6309 559.182 -98.1464 572.69 -97.2913 591.788C-96.4817 609.871 -68.7233 617.873 -57.2713 604.315Z" stroke="#1F41BB" stroke-width="2" stroke-miterlimit="10"/>
<path d="M-58.5907 59.9863C-35.4816 59.2806 -12.7062 65.5923 10.4018 66.3472C32.0004 67.0526 54.3615 62.9871 74.7816 70.0027C97.7747 77.9022 115.219 102.305 110.866 126.07C107.805 142.783 95.5322 156.06 86.4779 170.477C78.3482 183.422 72.6056 197.838 69.6194 212.801C66.8806 226.522 66.9397 242.17 76.0947 252.803C80.4913 257.909 86.0643 261.962 90.928 266.599C92.6732 268.263 94.4546 269.975 95.5158 272.134C99.6248 280.489 91.4596 291.331 96.07 299.424C97.8207 302.496 101.056 304.381 104.107 306.193C109.872 309.617 116.798 317.504 111.731 324.418C105.949 332.309 90.0459 326.633 82.5795 325.351C57.2324 321.001 29.7954 333.653 16.7933 355.689C12.4708 363.014 9.67283 371.135 5.4876 378.539C1.30237 385.942 -4.71179 392.886 -12.8583 395.469C-24.3244 399.103 -37.0891 392.924 -44.6703 383.647C-52.2515 374.37 -55.7741 362.558 -59.1191 351.082C-62.4634 339.607 -65.9781 327.793 -73.5472 318.506C-87.8526 300.955 -114.835 294.576 -123.678 273.775C-127.991 263.628 -126.879 251.954 -123.769 241.38C-120.658 230.806 -115.672 220.867 -112.231 210.395C-107.93 197.309 -106.089 183.316 -107.903 169.671C-111.062 145.925 -127.134 117.283 -117.828 93.1038C-109.346 71.0657 -80.2002 60.6465 -58.5907 59.9863Z" stroke="#65C8D0" stroke-width="3" stroke-miterlimit="10"/>
<path d="M168.871 350.557C171.636 352.76 174.343 355.252 175.69 358.506C177.037 361.76 176.666 365.953 173.96 368.226C171.343 370.423 167.304 370.206 164.294 368.58C161.284 366.954 159.087 364.195 157.057 361.454C153.293 356.371 149.64 350.752 144.66 346.73C141.764 344.391 132.029 341.728 132.403 338.631C133.776 327.232 165.342 347.747 168.871 350.557Z" stroke="#1F41BB" stroke-width="2" stroke-miterlimit="10"/>
<path d="M-96.1357 177.099C-98.5579 164.503 -103.649 152.575 -106.892 140.162C-110.137 127.749 -111.427 114.191 -106.358 102.395C-99.7192 86.9419 -83.1762 77.4724 -66.482 74.7216C-49.7877 71.9709 -32.7295 74.8491 -16.0759 77.8281C0.577709 80.8071 17.5627 83.8999 34.3215 81.5663C44.2221 80.1881 54.0889 76.9219 63.9959 78.245C79.5734 80.3252 92.3332 95.1615 91.9594 110.759C91.6589 123.321 84.0384 134.524 75.6037 143.894C67.169 153.265 57.5007 161.822 51.5056 172.889C46.0274 183.002 43.9858 194.55 42.2053 205.894C40.7901 214.91 39.4893 224.08 40.6599 233.13C41.8304 242.18 45.7796 251.238 53.1105 256.742C57.7278 260.208 63.3569 262.06 68.3133 265.029C73.2697 267.998 77.8322 272.745 77.9253 278.49C78.0424 285.734 71.3483 293.818 76.1261 299.293C78.9803 302.564 85.5309 304.557 83.8277 308.541C83.2449 309.906 81.7735 310.657 80.3677 311.157C67.3825 315.778 52.4342 308.195 39.3889 312.645C33.3606 314.702 28.4435 319.146 24.4114 324.047C16.0441 334.216 10.7925 346.655 2.20037 356.637C-6.39259 366.618 -20.4015 374.045 -32.7168 369.263C-40.1109 366.392 -45.3496 359.674 -48.7538 352.554C-54.0864 341.4 -55.7384 328.931 -58.7444 316.95C-61.7503 304.97 -66.6072 292.716 -76.409 285.116C-91.1291 273.704 -119.319 267.768 -109.516 243.587C-100.267 220.775 -91.1716 202.92 -96.1357 177.099Z" stroke="#1F41BB" stroke-width="2" stroke-miterlimit="10"/>
<path d="M-25.1795 92.7372C-9.81931 96.3247 5.9155 100.642 21.5117 98.2476C29.9052 96.9591 37.9496 93.7506 46.4056 92.9615C54.8615 92.1725 64.4473 94.4944 68.9523 101.64C73.4053 108.704 71.3936 118.237 66.7577 125.186C62.1217 132.135 55.2939 137.289 49.2801 143.106C27.7732 163.91 16.6321 193.84 15.1477 223.609C14.7167 232.252 15.1056 241.207 18.777 249.054C23.3589 258.847 32.656 265.853 42.7397 269.901C50.1157 272.861 59.6994 276.545 59.5575 284.442C59.433 291.394 51.2342 295.354 44.235 295.638C37.2359 295.922 29.8767 294.26 23.4292 296.979C11.61 301.964 9.8382 317.966 1.08513 327.293C-7.50655 336.449 -23.4441 337.478 -33.1547 329.505C-42.646 321.711 -44.9887 308.486 -47.4114 296.497C-49.27 287.302 -52.6245 272.455 -61.954 267.581C-71.4352 262.628 -83.8019 266.44 -89.8326 254.665C-94.3987 245.75 -89.5618 235.206 -85.7525 225.945C-78.4461 208.178 -73.9877 185.759 -80.9057 167.144C-83.7 159.625 -90.3715 153.73 -93.9604 146.262C-98.5403 136.73 -101.329 126.11 -97.059 115.932C-84.4633 85.9117 -52.2089 86.424 -25.1795 92.7372Z" stroke="#1F41BB" stroke-width="2" stroke-miterlimit="10"/>
<path d="M-33.0534 172.488C-33.7289 171.502 -34.4901 170.576 -35.3539 169.725C-41.4238 163.749 -50.8403 163.033 -58.5533 159.37C-72.6455 152.678 -82.3131 135.854 -78.9081 120.411C-77.4047 113.592 -72.7951 107.022 -66.3678 103.955C-59.727 100.784 -51.8882 103.812 -45.2862 106.014C-31.0514 110.761 -17.236 117.823 -2.2362 118.552C3.93367 118.853 10.31 118.161 16.2772 116.562C21.462 115.172 26.2917 112.247 31.8252 112.518C35.5309 112.699 39.2959 114.363 41.3303 117.443C46.915 125.895 35.9904 132.951 29.9454 136.577C18.2354 143.6 7.56846 154.071 5.01313 167.41C3.83489 173.562 4.4583 179.889 4.61136 186.148C4.8494 195.903 3.69956 208.795 -8.4523 210.811C-14.3264 211.785 -20.058 207.688 -23.0326 202.568C-26.0072 197.448 -26.8967 191.442 -28.1233 185.658C-29.1012 181.054 -30.4247 176.325 -33.0534 172.488Z" stroke="#1F41BB" stroke-width="2" stroke-miterlimit="10"/>
<path d="M-65.8847 223.822C-68.3726 231.268 -71.0854 239.828 -67.0186 246.553C-63.3477 252.623 -55.6318 254.649 -49.6551 258.514C-43.6451 262.4 -39.1501 268.536 -37.2776 275.409C-35.7332 281.079 -35.9329 287.091 -34.5609 292.804C-33.1889 298.517 -29.5745 304.353 -23.8059 305.657C-18.1328 306.94 -12.5066 303.456 -8.1873 299.585C-3.86797 295.714 0.19692 291.127 5.75895 289.43C9.98516 288.141 14.9428 288.566 18.35 285.77C22.1676 282.635 22.2336 276.599 19.9786 272.222C17.7245 267.844 13.7296 264.663 10.0502 261.371C6.37075 258.079 2.75008 254.276 1.69804 249.472C0.53346 244.155 2.69632 238.326 0.607104 233.296C-2.29149 226.316 -11.3132 224.739 -18.8517 223.735C-21.1725 223.426 -23.5978 223.032 -25.4588 221.621C-26.7137 220.669 -27.6072 219.327 -28.3619 217.951C-34.9713 205.891 -33.0443 189.038 -43.8138 180.425C-53.1522 172.957 -60.4115 183.796 -60.9245 192.44C-61.5824 203.548 -62.28 213.032 -65.8847 223.822Z" stroke="#1F41BB" stroke-width="2" stroke-miterlimit="10"/>
<path d="M-38.5371 157.082C-44.6878 155.479 -50.5845 152.916 -55.9396 149.511C-60.7554 146.447 -65.2205 142.601 -67.9907 137.633C-70.6225 132.915 -71.7875 126.999 -70.9586 121.654C-70.0268 115.646 -65.8982 112.721 -59.8511 112.062C-52.4231 111.253 -45.0991 114.084 -38.4047 117.379C-31.7103 120.674 -25.1484 124.534 -17.8297 126.029C-11.2222 127.379 -4.39355 126.719 2.35193 126.644C5.67925 126.608 9.8645 127.345 10.7014 130.542C11.6475 134.159 6.8412 137.806 4.53433 140.13C1.12218 143.57 -2.68105 146.239 -5.59357 150.206C-7.77454 153.177 -9.60564 156.673 -9.35461 160.34C-9.123 163.724 -7.16532 166.729 -6.25726 169.998C-5.45166 172.899 -5.52656 176.145 -7.02534 178.762C-8.52331 181.379 -11.6166 183.179 -14.6029 182.66C-17.457 182.164 -19.6618 179.713 -20.6113 176.995C-22.2452 172.322 -20.4034 166.838 -23.7071 162.696C-26.384 159.339 -31.1387 158.681 -35.3637 157.819C-36.4281 157.601 -37.4867 157.355 -38.5371 157.082Z" stroke="#1F41BB" stroke-width="2" stroke-miterlimit="10"/>
<path d="M-52.153 221.037C-52.2535 227.103 -57.0158 232.932 -55.2103 238.728C-53.5152 244.168 -47.1458 246.305 -42.2451 249.266C-35.1593 253.547 -30.1182 261.018 -28.8262 269.153C-28.122 273.589 -28.2322 278.711 -24.8766 281.722C-22.5767 283.786 -19.2642 284.212 -16.1725 284.445C-12.4574 284.726 -8.63118 284.855 -5.10203 283.669C-1.57288 282.483 1.63731 279.717 2.33327 276.084C3.16098 271.761 0.37208 267.627 -2.49826 264.275C-5.3686 260.923 -8.63217 257.419 -9.01971 253.036C-9.37561 249.007 -7.18385 244.876 -8.3926 241.014C-9.69397 236.857 -14.3575 234.791 -18.6332 233.825C-22.9089 232.86 -27.5792 232.358 -30.8737 229.485C-33.9964 226.763 -35.186 222.462 -35.6473 218.361C-36.3771 211.885 -35.9921 198.333 -46.0311 199.354C-56.7214 200.438 -52.0461 214.533 -52.153 221.037Z" stroke="#1F41BB" stroke-width="2" stroke-miterlimit="10"/>
<path d="M45.1814 613.022C60.2342 606.536 74.9932 596.875 82.401 581.868C94.6359 557.083 83.2837 527.495 82.5324 499.697C82.4623 497.099 82.5224 494.359 83.7914 492.113C86.8517 486.698 95.1354 487.452 99.711 491.567C104.287 495.681 106.508 501.842 109.813 507.096C115.645 516.369 125.288 522.988 135.826 524.953C143.918 526.462 152.927 525.53 159.637 530.435C168.216 536.705 168.963 549.197 171.6 559.705C176.4 578.835 190.043 594.947 206.861 604.373C223.678 613.798 243.398 616.894 262.479 615.312C289.244 613.093 316.301 602.105 342.207 609.366C350.016 611.556 357.666 615.623 362.362 622.426C367.593 630.005 368.473 639.837 368.59 649.146C368.736 660.685 367.648 673.136 360.415 681.94C352.842 691.157 340.414 694.119 328.804 695.625C291.075 700.517 252.903 695.676 214.911 694.154C184.855 692.95 154.719 693.832 124.774 696.791C92.1223 700.017 59.5018 705.718 26.7385 704.186C5.80273 703.207 -38.8952 690.909 -28.7379 659.594C-19.2084 630.212 21.4166 623.261 45.1814 613.022Z" stroke="#65C8D0" stroke-width="3" stroke-miterlimit="10"/>
<path d="M68.2562 624.445C85.9931 614.3 101.562 597.034 103.242 576.172C104.075 565.823 101.451 555.523 98.2938 545.667C96.5484 540.219 94.8503 533.546 98.5921 529.298C102.489 524.874 109.726 526.394 114.433 529.87C119.141 533.346 122.798 538.377 128.036 540.92C133.031 543.345 139.143 543.332 143.429 546.923C150.417 552.779 148.554 563.982 150.245 573.113C155.061 599.138 190.657 615.903 212.159 623.963C239.087 634.057 268.698 636.756 296.839 630.906C305.285 629.151 313.7 626.663 322.313 626.773C330.926 626.882 340.06 630.105 344.888 637.469C351.316 647.271 347.79 661.436 339.608 669.741C327.727 681.799 311.184 683.104 295.703 684.524C276.093 686.323 257.837 684.853 238.241 683.037C211.015 680.511 184.077 683.826 157.06 683.224C129.456 682.608 99.7658 681.975 72.5102 686.918C56.5931 689.804 40.7675 695.308 24.6765 693.796C6.54721 692.092 -21.5273 670.74 -0.797599 652.465C7.78408 644.9 21.286 642.689 31.7507 639.297C44.2392 635.25 56.7585 631.022 68.2562 624.445Z" stroke="#1F41BB" stroke-width="2" stroke-miterlimit="10"/>
<path d="M12.5548 664.334C14.0953 661.793 16.7952 660.189 19.4778 658.884C36.3129 650.693 56.0807 650.419 73.2648 642.976C99.3233 631.689 116.581 602.981 114.21 574.861C113.887 571.025 113.238 567.14 113.946 563.356C114.654 559.571 117.103 555.794 120.865 554.854C126.27 553.503 131.403 558.675 132.619 564.074C133.835 569.474 132.483 575.074 132.269 580.604C131.869 590.901 135.63 601.299 142.534 608.992C149.066 616.271 157.995 620.948 165.431 627.315C172.867 633.682 179.107 643.073 177.186 652.634C175.608 660.487 168.832 666.407 161.487 669.719C148.135 675.739 132.844 674.904 118.181 674.96C94.974 675.048 71.8345 677.712 49.1907 682.742C41.1483 684.528 34.6828 686.707 26.6194 684.314C18.8453 682.005 6.69631 673.994 12.5548 664.334Z" stroke="#1F41BB" stroke-width="2" stroke-miterlimit="10"/>
<path d="M189.03 652.787C197.085 645.984 208.542 644.612 219.051 645.778C229.561 646.944 239.703 650.314 250.165 651.845C262.3 653.62 274.805 652.873 286.639 649.668C293.321 647.858 300.059 645.245 306.94 646.018C313.82 646.79 320.799 652.559 319.799 659.362C318.98 664.935 313.486 668.493 308.367 670.922C290.84 679.242 271.199 683.129 251.8 682.115C238.797 681.436 225.36 678.653 213.032 682.819C203.651 685.989 191.216 691.284 183.637 681.258C177.451 673.077 181.883 658.824 189.03 652.787Z" stroke="#1F41BB" stroke-width="2" stroke-miterlimit="10"/>
<path d="M103.495 644.324C106.262 640.212 108.123 635.483 111.415 631.772C115.918 626.696 123.012 624.01 129.775 624.819C136.539 625.628 142.785 629.911 145.941 635.904C146.646 637.243 147.225 638.687 148.284 639.774C150.128 641.667 153.295 642.356 154.256 644.81C155.146 647.081 153.557 649.602 151.619 651.098C146.789 654.827 140.09 654.836 134.004 654.215C127.918 653.594 121.568 652.544 115.837 654.668C112.484 655.91 109.616 658.153 106.462 659.834C100.999 662.744 94.619 663.926 88.4674 663.167C86.4017 662.912 84.1198 662.274 83.1085 660.468C79.819 654.594 100.207 649.211 103.495 644.324Z" stroke="#1F41BB" stroke-width="2" stroke-miterlimit="10"/>
<path d="M229.561 663.671C231.098 664.712 232.548 666.05 233.11 667.81C234.388 671.821 230.557 675.683 226.672 677.372C219.754 680.379 186.909 682.366 192.351 667.525C196.438 656.376 222.23 658.706 229.561 663.671Z" stroke="#1F41BB" stroke-width="2" stroke-miterlimit="10"/>
</g>
<g opacity="0.65">
<path d="M1204.3 235.545C1182.45 238.208 1160.96 245.467 1142.98 258.086C1125 270.706 1110.68 288.862 1104.31 309.789C1098.87 327.681 1098.86 347.94 1087.54 362.873C1077.82 375.687 1060.75 382.033 1044.68 380.451C1028.6 378.869 1013.74 369.983 1003.31 357.742C993.616 346.363 987.475 332.282 977.401 321.231C960.947 303.179 934.136 295.146 910.364 301.145" stroke="#29ABE2" stroke-width="2" stroke-miterlimit="10" stroke-dasharray="4 6 4 6"/>
<path d="M972.507 314.664C990.132 301.583 1008.64 287.353 1016.22 266.837C1019.8 257.144 1020.65 246.673 1020.76 236.35C1021.12 204.067 1013.75 170.248 992.314 145.99C983.957 136.534 973.426 128.386 968.719 116.704C965.211 107.998 965.378 98.2879 966.233 88.9479C967.463 75.5147 970.308 61.5415 979.027 51.1985C988.169 40.3553 1002.41 35.0835 1012.71 25.3194C1030.55 8.40649 1032.93 -22.1568 1017.91 -41.5803" stroke="#29ABE2" stroke-width="2" stroke-miterlimit="10" stroke-dasharray="4 6 4 6"/>
<path d="M994.467 565.25C1003.16 558.28 1016.34 560.708 1025.82 566.566C1035.3 572.425 1042.72 581.111 1052.07 587.186C1065.09 595.657 1081.67 598.536 1096.82 594.957C1122.21 588.958 1141.9 566.329 1167.84 563.488C1177.85 562.392 1187.95 564.406 1197.55 567.429C1214.03 572.622 1230 581.237 1240.41 594.956" stroke="#29ABE2" stroke-width="2" stroke-miterlimit="10" stroke-dasharray="4 6 4 6"/>
<path d="M843.799 244.64C855.371 210.811 848.409 171.34 825.949 143.44C819.934 135.967 812.943 129.336 806.45 122.268C789.696 104.03 776.112 82.4781 769.783 58.6032C763.455 34.7284 764.816 8.41256 776.218 -13.5319" stroke="#29ABE2" stroke-width="2" stroke-miterlimit="10" stroke-dasharray="4 6 4 6"/>
<path d="M1007.28 725.879C981.514 703.011 969.158 662.949 986.021 632.993C1000.08 608.011 1033.3 591.346 1035.87 560.181C1036.45 553.033 1035.29 545.447 1030.95 539.715C1023.49 529.856 1008.32 527.332 1002.51 516.431C998.656 509.189 1000.13 500.318 997.991 492.406C995.543 483.365 988.425 476.128 980.242 471.471C960.441 460.198 939.269 455.444 923.786 436.939C913 424.048 907.848 405.001 915.853 390.244C921.274 380.251 932.084 373.017 934.256 361.874C934.973 358.192 934.66 354.338 935.691 350.731C938.102 342.299 947.732 337.299 956.524 338.092C965.317 338.884 973.088 344.34 978.868 350.962C984.649 357.585 988.818 365.407 993.558 372.799C1009.18 397.165 1024.99 417.995 1055.95 418.338C1061.97 418.405 1068.07 418.068 1073.82 416.301C1095.34 409.693 1111.23 375.908 1113.84 355.336C1114.36 351.237 1114.07 347.078 1114.38 342.958C1115.99 321.933 1135.01 304.073 1156.16 302.117C1177.31 300.16 1198.59 313.19 1207.81 332.184C1212.29 341.422 1214.17 351.728 1218.58 361.006C1223.84 372.1 1232.58 381.48 1236.52 393.101C1238.15 397.882 1238.91 402.936 1240.79 407.622C1244.83 417.677 1253.54 425.025 1261.97 431.896C1274.35 441.99 1287.08 452.288 1295.19 466.001C1306.83 485.68 1307.46 509.934 1304.48 532.563C1301.49 555.192 1295.24 577.421 1294.23 600.221C1292.58 637.719 1304.87 677.327 1289.67 711.696C1275 744.845 1227.1 777.185 1189.65 772.73C1174.28 770.901 1160.46 762.649 1144.9 760.682C1120.8 757.636 1096.53 759.86 1072.5 755.357C1048.8 750.914 1025.46 742.017 1007.28 725.879Z" stroke="#65C8D0" stroke-width="4" stroke-miterlimit="10"/>
<path d="M737.399 183.23C716.949 165.155 706.656 139.829 704.344 112.604C702.198 87.3416 694.064 58.5727 707.07 34.6339C720.707 9.53832 751.578 0.849362 779.394 -0.734743C808.616 -2.39896 837.844 1.10756 866.986 3.85492C917.254 8.59282 968.003 11.0748 1018.14 5.00648C1062.68 -0.382864 1107.84 -12.4654 1151.7 -2.89319C1168.06 0.679157 1185.2 8.53075 1192.44 24.0995C1195.63 30.9463 1196.57 38.6407 1197.48 46.1817C1202.27 86.1997 1212.92 129.951 1181.11 161.689C1165.97 176.801 1145.48 184.406 1126.85 194.545C1108.22 204.684 1089.76 219.606 1085.3 240.853C1080.07 265.677 1095.46 292.301 1087.31 316.273C1083.25 328.241 1073.22 337.864 1061.37 341.179C1049.51 344.493 1036.16 341.406 1026.82 333.19C1014.06 321.968 1009.16 302.734 995.053 293.377C977.744 281.895 952.054 289.046 936.952 274.622C926.381 264.526 925.37 247.825 918.688 234.653C912.803 223.054 902.575 214.431 891.767 207.582C881.985 201.384 871.152 196.269 859.681 195.819C846.004 195.284 833.001 201.364 819.636 204.427C791.033 210.984 759.646 202.893 737.399 183.23Z" stroke="#65C8D0" stroke-width="4" stroke-miterlimit="10"/>
<path d="M1217.15 742.338C1195.8 745.019 1174.58 737.932 1153.2 735.509C1116.01 731.295 1075.05 740.509 1043.25 720.922C1017 704.755 1004.61 669.463 1015.04 640.594C1022.18 620.806 1038.06 605.512 1048.79 587.389C1059.52 569.266 1064.02 543.854 1049.27 528.781C1042.22 521.585 1031.58 517.687 1026.93 508.779C1022.57 500.433 1024.84 490.224 1022.57 481.095C1018.01 462.683 997.413 453.892 979.537 447.208C961.66 440.522 941.335 430.065 939.002 411.245C938.313 405.689 939.39 400.044 941.139 394.722C942.705 389.957 945.028 385.111 949.265 382.385C955.77 378.201 964.767 380.475 970.826 385.271C976.885 390.068 980.879 396.893 985.521 403.052C1001.01 423.615 1025.75 437.684 1051.62 438.095C1077.49 438.506 1103.65 424.226 1115.1 401.198C1124.41 382.495 1125.19 358.027 1142.22 345.813C1157.99 334.503 1181.8 340.439 1194.58 354.992C1212.84 375.777 1211.79 407.485 1226.82 430.682C1242.44 454.783 1273.88 467.357 1284.1 494.157C1296.32 526.193 1272.3 560.4 1271.43 594.648C1270.96 613.264 1277.4 631.299 1280.1 649.728C1286.31 692.309 1263.21 736.554 1217.15 742.338Z" stroke="#65C8D0" stroke-width="3" stroke-miterlimit="10"/>
<path d="M1128.53 162.224C1106.98 171.679 1083.14 181.951 1072.84 203.666C1060.76 229.138 1072.27 259.24 1072.16 287.592C1072.14 293.706 1071.37 300.291 1067.39 304.823C1058.75 314.673 1042.42 307.837 1034.1 297.706C1025.79 287.576 1019.96 274.225 1008.24 268.752C990.389 260.416 964.603 273.22 952.261 257.513C945.263 248.608 947.493 235.67 945.948 224.311C942.912 201.976 923.772 184.644 902.751 178.532C881.731 172.421 859.221 175.629 838.013 181.041C824.772 184.421 811.226 188.68 797.743 186.571C768.934 182.066 751.392 150.161 747.839 120.295C745.838 103.473 746.958 85.9112 753.619 70.414C760.281 54.9167 772.982 41.722 788.803 37.1952C798.254 34.491 808.251 34.9222 818.029 35.6578C853.274 38.3074 888.337 44.6298 923.673 44.0306C966.343 43.3063 1008.19 32.521 1050.5 26.7723C1076.59 23.2285 1103.61 21.674 1128.76 29.6344C1153.91 37.5949 1177.05 56.6821 1184.11 82.8481C1194.89 122.76 1159.34 148.705 1128.53 162.224Z" stroke="#65C8D0" stroke-width="3" stroke-miterlimit="10"/>
<path d="M1202 724.847C1178.09 725.577 1154.52 719.046 1130.61 718.265C1108.27 717.535 1085.13 721.742 1064 714.483C1040.21 706.309 1022.16 681.06 1026.67 656.471C1029.83 639.178 1042.53 625.441 1051.9 610.524C1060.31 597.13 1066.25 582.214 1069.34 566.733C1072.18 552.535 1072.12 536.345 1062.64 525.343C1058.09 520.06 1052.33 515.867 1047.3 511.068C1045.49 509.347 1043.65 507.575 1042.55 505.341C1038.3 496.697 1046.75 485.478 1041.98 477.106C1040.16 473.926 1036.82 471.977 1033.66 470.101C1027.69 466.558 1020.53 458.398 1025.77 451.244C1031.75 443.079 1048.21 448.953 1055.93 450.279C1082.16 454.78 1110.55 441.689 1124 418.889C1128.47 411.31 1131.37 402.907 1135.7 395.246C1140.03 387.587 1146.25 380.401 1154.68 377.73C1166.55 373.969 1179.75 380.362 1187.6 389.961C1195.44 399.56 1199.09 411.782 1202.55 423.655C1206.01 435.529 1209.64 447.752 1217.48 457.361C1232.28 475.521 1260.2 482.121 1269.34 503.644C1273.81 514.143 1272.66 526.221 1269.44 537.162C1266.22 548.102 1261.06 558.387 1257.5 569.222C1253.05 582.762 1251.15 597.24 1253.02 611.358C1256.29 635.927 1272.92 665.563 1263.29 690.581C1254.52 713.383 1224.36 724.164 1202 724.847Z" stroke="#65C8D0" stroke-width="3" stroke-miterlimit="10"/>
<path d="M966.649 424.198C963.788 421.92 960.988 419.341 959.594 415.974C958.2 412.607 958.584 408.269 961.384 405.917C964.092 403.643 968.27 403.868 971.385 405.55C974.499 407.233 976.773 410.088 978.873 412.923C982.767 418.183 986.548 423.997 991.7 428.158C994.696 430.578 1004.77 433.334 1004.38 436.539C1002.96 448.332 970.301 427.107 966.649 424.198Z" stroke="#1F41BB" stroke-width="2" stroke-miterlimit="10"/>
<path d="M1240.85 603.673C1243.35 616.705 1248.62 629.047 1251.98 641.891C1255.33 654.734 1256.67 668.762 1251.42 680.968C1244.55 696.956 1227.44 706.754 1210.16 709.6C1192.89 712.447 1175.24 709.469 1158.01 706.386C1140.78 703.304 1123.21 700.104 1105.87 702.518C1095.62 703.944 1085.41 707.324 1075.16 705.955C1059.04 703.803 1045.84 688.452 1046.23 672.313C1046.54 659.315 1054.42 647.724 1063.15 638.029C1071.88 628.333 1081.88 619.479 1088.09 608.028C1093.75 597.565 1095.87 585.617 1097.71 573.879C1099.17 564.55 1100.52 555.062 1099.31 545.699C1098.1 536.335 1094.01 526.963 1086.42 521.268C1081.65 517.681 1075.82 515.765 1070.69 512.693C1065.57 509.621 1060.85 504.71 1060.75 498.765C1060.63 491.27 1067.55 482.905 1062.61 477.24C1059.66 473.857 1052.88 471.795 1054.64 467.672C1055.25 466.26 1056.77 465.482 1058.22 464.965C1071.66 460.184 1087.12 468.03 1100.62 463.425C1106.86 461.298 1111.95 456.699 1116.12 451.629C1124.78 441.107 1130.21 428.236 1139.1 417.908C1147.99 407.58 1162.49 399.896 1175.23 404.845C1182.88 407.815 1188.3 414.766 1191.82 422.133C1197.34 433.673 1199.05 446.575 1202.16 458.971C1205.27 471.367 1210.29 484.046 1220.44 491.909C1235.67 503.717 1264.83 509.859 1254.69 534.878C1245.12 558.482 1235.71 576.956 1240.85 603.673Z" stroke="#1F41BB" stroke-width="2" stroke-miterlimit="10"/>
<path d="M1094.63 152.631C1079.05 159.342 1063.78 169.339 1056.12 184.866C1043.46 210.51 1055.21 241.125 1055.98 269.886C1056.06 272.575 1055.99 275.41 1054.68 277.734C1051.51 283.337 1042.94 282.556 1038.21 278.299C1033.47 274.042 1031.18 267.668 1027.76 262.23C1021.72 252.637 1011.74 245.788 1000.84 243.754C992.468 242.193 983.146 243.158 976.204 238.083C967.328 231.595 966.555 218.67 963.827 207.798C958.86 188.004 944.743 171.334 927.343 161.58C909.942 151.828 889.538 148.625 869.795 150.262C842.103 152.558 814.107 163.927 787.303 156.414C779.222 154.148 771.307 149.941 766.448 142.901C761.036 135.059 760.126 124.886 760.004 115.255C759.853 103.315 760.979 90.4324 768.463 81.3232C776.298 71.7869 789.158 68.722 801.171 67.1641C840.208 62.1025 879.704 67.1109 919.013 68.6853C950.112 69.931 981.293 69.0186 1012.28 65.9576C1046.06 62.6192 1079.81 56.7209 1113.71 58.3054C1135.37 59.3187 1181.62 72.0431 1171.11 104.444C1161.25 134.845 1119.22 142.037 1094.63 152.631Z" stroke="#65C8D0" stroke-width="3" stroke-miterlimit="10"/>
<path d="M1070.75 140.812C1052.4 151.309 1036.29 169.174 1034.55 190.759C1033.69 201.467 1036.41 212.125 1039.67 222.322C1041.48 227.959 1043.24 234.863 1039.37 239.258C1035.33 243.836 1027.85 242.263 1022.97 238.667C1018.1 235.07 1014.32 229.865 1008.9 227.234C1003.73 224.725 997.408 224.738 992.974 221.023C985.743 214.964 987.67 203.372 985.921 193.924C980.938 166.997 944.108 149.651 921.86 141.311C893.998 130.867 863.36 128.074 834.243 134.127C825.504 135.943 816.797 138.517 807.886 138.404C798.974 138.291 789.523 134.955 784.528 127.337C777.877 117.194 781.525 102.538 789.991 93.9453C802.284 81.4686 819.4 80.1185 835.419 78.6493C855.709 76.7879 874.597 78.3087 894.873 80.1886C923.044 82.8017 950.916 79.3717 978.87 79.9947C1007.43 80.6317 1038.15 81.2865 1066.35 76.173C1082.82 73.1865 1099.2 67.4915 1115.84 69.0563C1134.6 70.8192 1163.65 92.9115 1142.2 111.821C1133.32 119.648 1119.35 121.936 1108.52 125.445C1095.6 129.633 1082.65 134.007 1070.75 140.812Z" stroke="#1F41BB" stroke-width="2" stroke-miterlimit="10"/>
<path d="M1128.39 99.5395C1126.79 102.169 1124 103.828 1121.22 105.179C1103.8 113.653 1083.35 113.938 1065.57 121.638C1038.61 133.317 1020.75 163.02 1023.21 192.116C1023.54 196.085 1024.21 200.104 1023.48 204.02C1022.75 207.936 1020.21 211.843 1016.32 212.816C1010.73 214.214 1005.42 208.863 1004.16 203.276C1002.9 197.689 1004.3 191.895 1004.52 186.174C1004.93 175.519 1001.04 164.761 993.9 156.801C987.142 149.269 977.903 144.431 970.209 137.843C962.515 131.255 956.059 121.538 958.046 111.645C959.679 103.52 966.69 97.3949 974.29 93.9683C988.105 87.7395 1003.93 88.6028 1019.1 88.545C1043.11 88.4545 1067.05 85.6976 1090.48 80.4938C1098.8 78.6458 1105.49 76.3903 1113.83 78.8669C1121.88 81.2556 1134.45 89.5446 1128.39 99.5395Z" stroke="#1F41BB" stroke-width="2" stroke-miterlimit="10"/>
<path d="M945.791 111.487C937.456 118.527 925.603 119.946 914.729 118.739C903.855 117.532 893.36 114.046 882.536 112.462C869.98 110.625 857.042 111.398 844.797 114.715C837.883 116.587 830.911 119.29 823.792 118.491C816.673 117.692 809.452 111.724 810.487 104.684C811.335 98.9176 817.019 95.237 822.315 92.7231C840.451 84.1147 860.773 80.0934 880.845 81.1423C894.298 81.845 908.201 84.7239 920.957 80.4137C930.663 77.1337 943.529 71.6547 951.371 82.0288C957.771 90.4939 953.186 105.241 945.791 111.487Z" stroke="#1F41BB" stroke-width="2" stroke-miterlimit="10"/>
<path d="M1034.29 120.244C1031.43 124.498 1029.5 129.391 1026.1 133.232C1021.44 138.483 1014.1 141.262 1007.1 140.425C1000.1 139.588 993.641 135.157 990.375 128.956C989.645 127.57 989.046 126.076 987.95 124.952C986.042 122.993 982.766 122.28 981.771 119.741C980.851 117.392 982.495 114.783 984.5 113.235C989.497 109.377 996.429 109.367 1002.73 110.01C1009.02 110.652 1015.59 111.738 1021.52 109.541C1024.99 108.256 1027.96 105.935 1031.22 104.196C1036.88 101.185 1043.48 99.9618 1049.84 100.747C1051.98 101.011 1054.34 101.672 1055.39 103.54C1058.79 109.618 1037.69 115.188 1034.29 120.244Z" stroke="#1F41BB" stroke-width="2" stroke-miterlimit="10"/>
<path d="M903.855 100.226C902.265 99.1492 900.764 97.7646 900.183 95.943C898.86 91.7929 902.825 87.7971 906.845 86.0496C914.003 82.9379 947.986 80.8824 942.356 96.2381C938.127 107.774 911.44 105.363 903.855 100.226Z" stroke="#1F41BB" stroke-width="2" stroke-miterlimit="10"/>
</g>
</g>
<defs>
<clipPath id="clip0_21_67">
<rect width="1063" height="760" fill="white"/>
</clipPath>
</defs>
</svg>
